<svg xmlns="http://www.w3.org/2000/svg" width="718.25" height="213.75" viewBox="0 0 718.25 213.75">
  <defs>
    <style>
      .cls-1 {
        fill-rule: evenodd;
      }
    </style>
  </defs>
  <path id="SoftXD" class="cls-1" d="M850.75,757.25q0-14.5-13.125-24.5T797,714.75q-18.75-5.748-29-9.625t-16.375-9.375a16.926,16.926,0,0,1-6.125-13q0-9.246,13.375-19.25A124.723,124.723,0,0,1,790.5,646.75Q808.746,640,821.75,640a25.257,25.257,0,0,1,5.75.5q2,0.5,3.5,1a29.97,29.97,0,0,1,2.875,1.375,6.187,6.187,0,0,0,2.875.875q2.748,0,2.75-3.75a49.1,49.1,0,0,0-.75-9Q838,627,828,627q-19.5,0-42.25,8.375t-38.25,21.75Q732,670.5,732,684.25a23.053,23.053,0,0,0,7.5,17.375q7.5,7.125,19.625,12T793.5,725.75q23,7,33.375,14.75T837.25,759q0,8.25-6,17t-17.125,14.5Q803,796.254,788.25,796.25A84.615,84.615,0,0,1,772.5,795a41.854,41.854,0,0,1-9.625-2.75q-3.129-1.5-3.125-2.25a3.05,3.05,0,0,1,.875-2,2.872,2.872,0,0,0,.875-1.75q0-1.248-3-1.25-2,0-5.625,5.875t-3.625,8.375q0,4.746,9.5,7.375t25.75,2.625q19.248,0,34.375-7.625t23.5-19.75q8.373-12.123,8.375-24.625h0Zm109.247-8a31.21,31.21,0,0,0-6.75-20A113.706,113.706,0,0,0,936.5,712.5q-5-4.248-5-5a3.341,3.341,0,0,1,.875-1.875,3.416,3.416,0,0,0,.875-1.625,1.38,1.38,0,0,0-1-1.375,14.965,14.965,0,0,0-4.25-.375,24.6,24.6,0,0,0-10,1.875Q913.743,706,913.747,709q0,2,3,5a85.181,85.181,0,0,0,9.5,7.75A97.953,97.953,0,0,1,942,735.5a22.3,22.3,0,0,1,5.75,15.25q0,7.752-5.75,17.125a51.683,51.683,0,0,1-15.375,15.875,36.547,36.547,0,0,1-20.875,6.5q-24,0-24-19.75a91.572,91.572,0,0,1,3.875-27.25A136.479,136.479,0,0,1,896.5,718a117.8,117.8,0,0,1,13.75-20.25q0.75-1,2.125-2.875a6.738,6.738,0,0,0,1.375-2.375,3.309,3.309,0,0,0-1.875-2.875,7.868,7.868,0,0,0-4.125-1.125,15.578,15.578,0,0,0-9.5,3.375,31.208,31.208,0,0,0-8.125,9.75Q886.495,708,886,709a122.841,122.841,0,0,0-12.375,31.75q-4.377,17.754-4.375,29.75,0,13.752,8,23T902,802.75a52.042,52.042,0,0,0,30.25-9.125,66.386,66.386,0,0,0,20.5-21.875q7.248-12.75,7.25-22.5h0ZM1079.75,642q0-4.746-4.13-10.5a34.9,34.9,0,0,0-11-9.75,29.106,29.106,0,0,0-14.87-4q-22.005,0-33.13,25.625T1005.5,710q-5.01,1-14.255,1.875T975.5,713q-4.5.252-4.5,6.5a4.2,4.2,0,0,0,1.875,3.75,8.128,8.128,0,0,0,4.625,1.25,98.587,98.587,0,0,0,15.875-2q10.875-2,12.88-2.25l0.5,8q3.75,61.5,3.75,90.25a22.186,22.186,0,0,0,1.75,9q1.74,4,5.25,4c2,0,3.33-.625,4-1.875s1-3.461,1-6.625q0-26.25-2.5-70.25-1.5-28.5-1.5-34.75l20-3q12.495-2.5,16.5-2.5a24.642,24.642,0,0,1,9.5,1.5,13.311,13.311,0,0,0,5,1q3,0,4.5-4a21.4,21.4,0,0,0,1.5-7.5q0-4.5-5-4.5-5.76,0-23.5,3.75-3,.5-12.38,2.375a131.33,131.33,0,0,1-16.87,2.375q0-31.746,7.62-55.375T1050.5,628.5q6.495,0,12.12,5.875A36.939,36.939,0,0,1,1071,648.75a20.774,20.774,0,0,0,1.62,4.375,2.812,2.812,0,0,0,2.63,1.625q1.74,0,3.12-4.875a30.908,30.908,0,0,0,1.38-7.875h0Zm116.24,55.5a9.468,9.468,0,0,0-2.87-6.375c-1.92-2.082-3.79-3.125-5.63-3.125-1,0-1.96,1-2.87,3s-2.04,3.168-3.38,3.5q-33.24,7.5-44.5,9.25l-0.25-6.75q-0.495-11.5-.5-20.75a118.5,118.5,0,0,1,1.25-19.25,80.072,80.072,0,0,0,1.25-8.75,3.881,3.881,0,0,0-.75-2.75,4.343,4.343,0,0,0-3-.75,7.433,7.433,0,0,0-7.5,5,36.235,36.235,0,0,0-2.37,9.625,138.424,138.424,0,0,0-.63,15.125q0,6,.5,17.5,0.51,8.5.5,13.75-6,1-22.75,4.25-1.995.5-9.25,1.875a64.216,64.216,0,0,1-11,1.375q-5.25,0-7.5,1t-2.25,4.25a5.438,5.438,0,0,0,2.63,4.75,9.93,9.93,0,0,0,5.62,1.75q2.505,0,15.75-2.75,14.76-3.246,28.75-5.5,0,12.75.38,26.375T1126.74,767q0.75,11.5,2.13,21t2.87,13a7.19,7.19,0,0,0,1.75,2.875,3.672,3.672,0,0,0,2.5.875,10.627,10.627,0,0,0,5.88-2.125q3.12-2.127,3.12-4.625-0.24-1-2.75-8.75-2.49-7.746-3.5-22.25-0.75-10.746-1.12-25t-0.38-27.25l16.25-2.75q2.76-.5,25.75-4.5,9.51-1.248,13.13-3.5a7.213,7.213,0,0,0,3.62-6.5h0Zm95.25,69c0-1.664-.21-2.707-0.62-3.125a3.412,3.412,0,0,0-2.38-.625c-0.83,0-1.54,1.043-2.12,3.125s-1.05,3.543-1.38,4.375a56.207,56.207,0,0,1-2.75,6.875,2.911,2.911,0,0,1-2.5,1.875q-3.495,0-13.37-16.75A402.472,402.472,0,0,1,1246.49,724l5.5-10q7.245-13.746,16-29.25t11.75-19.5a52.018,52.018,0,0,1,7.75-8.25q4.5-4,4.5-5.25c0-.664-0.71-1.25-2.12-1.75a15.512,15.512,0,0,0-5.13-.75q-6.495,0-9,1.75t-6.25,7q-3.255,4.752-29.5,54-4.245-10.5-12.5-27.625T1214.24,658a62.494,62.494,0,0,0-9.62-13.875q-5.13-5.373-7.38-5.375c-1.66,0-2.5,1.168-2.5,3.5q0,1.254,2.25,5.75t5.25,10l5.5,10.75q6.495,13,25.25,55.75-10.755,22-21.25,48t-10.5,34.5a9.492,9.492,0,0,0,1.75,6,5.7,5.7,0,0,0,4.75,2.25q1.5,0,5-5.625t4.5-7.125a33.75,33.75,0,0,1,2.25-3.25c0.67-.832,1.25-1.582,1.75-2.25,0.33-.5,1.13-1.539,2.38-3.125s1.87-2.789,1.87-3.625a1.867,1.867,0,0,0-1.25-1.625,7.647,7.647,0,0,1-1.5-.875,4.352,4.352,0,0,1-1.75-1.75,4.269,4.269,0,0,1-.75-2q0-4,6.5-18.5t13.25-27q6.495,16.254,19.88,38.625,13.365,22.377,17.62,22.375,2.745,0,5.88-6.75a103.811,103.811,0,0,0,5.5-15.125q2.37-8.373,2.37-11.125h0Zm159-81.75q0-24.5-28.63-34.75t-74.12-10.25q-14.25,0-24.88,1t-25.62,3a13.994,13.994,0,0,0-5.5,1.625c-1.17.75-1.75,1.543-1.75,2.375a12.89,12.89,0,0,0,1.87,6.5q1.875,3.252,3.88,3.25a19.838,19.838,0,0,0,5.25-1.25,72.747,72.747,0,0,1,12.5-2.5q21-3,33.5-3,40.995,0,66.37,7.5T1438.49,686q0,16.752-10,32.25t-31.75,35q-10.5,9-25.88,20t-24.37,14.5q0.24-3.75.25-22.5,0-11-.5-39.5-0.75-22.248-.75-41a47.315,47.315,0,0,1,2.37-14.25c1.59-5,2.46-7.914,2.63-8.75a2.4,2.4,0,0,0-1.63-2.25,8.526,8.526,0,0,0-3.62-.75q-5.76,0-8,6-3,9.5-3,24.25,0,9.5.5,33,0.75,20.25.75,45.25a256.611,256.611,0,0,1-1.13,25.75q-1.125,11-1.12,12.5a4,4,0,0,0,1,3.125,4.887,4.887,0,0,0,3.25.875,6.475,6.475,0,0,0,4.5-1.375,8.494,8.494,0,0,0,2.25-4.125q10.74-5,26.87-17t31.38-25.5q25.245-22.248,36.5-39.75t11.25-37h0Z" transform="translate(-732 -617.75)"/>
</svg>
