<svg xmlns="http://www.w3.org/2000/svg" width="878.529" height="247.312" viewBox="0 0 878.529 247.312">
  <defs>
    <style>
      .cls-1 {
        fill-rule: evenodd;
      }
    </style>
  </defs>
  <path id="SoftXD" class="cls-1" d="M771.724,642.938A29.239,29.239,0,0,0,761.958,635a28.189,28.189,0,0,0-6.775-2.564q-4.212-1.1-8.911-1.831t-9.155-1.159q-4.458-.426-7.386-0.428-2.442,0-5.92.306t-7.2.732q-3.725.429-7.2,1.038t-5.921,1.1a134.491,134.491,0,0,0-23.254,7.752,108.618,108.618,0,0,0-20.081,11.291,58.561,58.561,0,0,0-13.977,13.794,25.327,25.327,0,0,0-4.944,15.5,41.416,41.416,0,0,0,11.475,29.419,74.317,74.317,0,0,0,28.076,18.555q10.008,3.908,18.372,6.714t15.076,4.516q5.493,1.345,12.512,3.662a64.845,64.845,0,0,1,13.733,6.47q6.834,4.275,6.836,8.911a12.173,12.173,0,0,1-1.831,6.348,29.8,29.8,0,0,1-4.517,5.737,48.23,48.23,0,0,1-5.8,4.944q-3.114,2.26-5.677,3.967a111.9,111.9,0,0,1-12.39,6.836,130.832,130.832,0,0,1-14.465,5.86,118.165,118.165,0,0,1-15.442,4.089,79.714,79.714,0,0,1-15.2,1.526,77.141,77.141,0,0,1-12.024-.794,83.069,83.069,0,0,1-8.545-1.77q-3.6-.975-6.225-1.77a17.521,17.521,0,0,0-5.066-.793,2.913,2.913,0,0,0-2.381,1.526,16.708,16.708,0,0,0-1.831,3.723,28.294,28.294,0,0,0-1.22,4.517,22.1,22.1,0,0,0-.428,3.906q0,2.563,3.479,4.822a37.241,37.241,0,0,0,8.362,3.906,69.972,69.972,0,0,0,9.949,2.563,48.335,48.335,0,0,0,8.24.916,80.143,80.143,0,0,0,9.7-.672q5.43-.672,11.353-1.77t11.963-2.624q6.042-1.529,11.535-3.357a116.069,116.069,0,0,0,11.109-4.272q5.493-2.44,10.62-5.25t9.643-5.8q4.515-2.989,8.057-5.8a75,75,0,0,0,6.592-5.737,61.673,61.673,0,0,0,6.592-7.508,45.848,45.848,0,0,0,5.066-8.545,21.609,21.609,0,0,0,2.014-8.972q0-14.035-13.367-23.743t-40.954-16.784q-0.98-.243-4.456-1.4t-7.568-2.5q-4.092-1.341-7.63-2.563t-4.516-1.587a38.632,38.632,0,0,1-10.8-5,52.544,52.544,0,0,1-9.155-7.568,38.288,38.288,0,0,1-6.287-8.545,14.8,14.8,0,0,1-2.075-7.813,18.15,18.15,0,0,1,3.662-8.3,40.319,40.319,0,0,1,6.958-6.958,57.155,57.155,0,0,1,8.789-5.677q4.761-2.5,9.156-4.333a93.138,93.138,0,0,1,11.047-3.723,98.147,98.147,0,0,1,21.118-3.235q5.43-.243,11.292-0.244a41.843,41.843,0,0,1,6.164.549,40.874,40.874,0,0,1,7.141,1.77,32.209,32.209,0,0,1,6.409,2.991,9.583,9.583,0,0,1,3.967,4.333,35.653,35.653,0,0,1,2.32,13.794q7.568,0,10.5-3.54a12.148,12.148,0,0,0,2.014-3.357,36.889,36.889,0,0,0,1.587-4.516,40.963,40.963,0,0,0,1.037-4.7,25.658,25.658,0,0,0,.367-3.906Q775.264,647.576,771.724,642.938Zm370.116,57.067a4.68,4.68,0,0,0-1.95-1.281,6.078,6.078,0,0,0-2.26-.306,18.024,18.024,0,0,0-1.89.184q-5.745.978-12.82,2.136t-14.71,2.136q-7.635.978-15.32,1.648t-14.53.671q-4.515,0-4.51-4.516a28.6,28.6,0,0,1,.49-4.883q0.48-2.807,1.58-7.263t2.99-10.864q1.89-6.41,4.83-15.564a46.184,46.184,0,0,0,2.68-14.283q0-5.127-1.89-7.568t-6.41-2.441q-5.985,0-8.67,6.347a48.766,48.766,0,0,0-2.32,7.08q-0.975,3.909-1.95,8.545-0.975,4.518-1.89,9.278t-1.89,9.826q-0.99,5.067-2.14,10.559t-2.75,11.6a17.72,17.72,0,0,1-1.34,3.723,9.042,9.042,0,0,1-1.46,2.136,4.627,4.627,0,0,1-1.47,1.038c-0.49.2-.98,0.387-1.46,0.549q-2.445.856-5.56,1.648a47.9,47.9,0,0,1-6.16,1.16q-12.45,1.71-25.76,2.5t-29.54.794q-12.208,0-12.207-5,0.366-7.078,1.281-14.4t2.442-14.344q1.524-7.017,3.6-13.672a112.549,112.549,0,0,1,4.639-12.39q1.1-2.441,2.807-5.615a42.26,42.26,0,0,1,3.845-5.92,23.281,23.281,0,0,1,4.761-4.639,9.516,9.516,0,0,1,5.681-1.892,4.827,4.827,0,0,1,4.27,2.624,21.953,21.953,0,0,1,2.44,6.165,48.4,48.4,0,0,1,1.16,7.08q0.3,3.541.3,5.371a73.466,73.466,0,0,1-2.19,18.067h0.49q4.38,0,9.52-7.813,8.91-13.3,8.91-25.146a20.706,20.706,0,0,0-1.83-8.667,23.819,23.819,0,0,0-4.89-7.08,22.709,22.709,0,0,0-7.14-4.822,21.408,21.408,0,0,0-8.6-1.77,20.988,20.988,0,0,0-9.586,2.38,45,45,0,0,0-8.911,5.982,59.162,59.162,0,0,0-7.69,7.934,72.033,72.033,0,0,0-5.8,8.24,120.776,120.776,0,0,0-6.53,13.428,81.9,81.9,0,0,0-4.456,13.916q-0.489,2.563-1.4,7.2t-1.892,9.7q-0.978,5.067-1.831,9.705t-1.343,7.08a7.274,7.274,0,0,1-.671,2.014,12.111,12.111,0,0,1-1.4,2.258,8.906,8.906,0,0,1-2.014,1.893,6.448,6.448,0,0,1-2.624,1.037,54.639,54.639,0,0,1-7.02.733q-3.359.123-8.117-.123-3.786-.243-8.728-0.976t-9.888-1.892q-4.944-1.16-9.521-2.686a46.539,46.539,0,0,1-7.874-3.357,43.5,43.5,0,0,1-6.47-4.333q-2.93-2.38-5.493-4.395a49.749,49.749,0,0,0-4.883-3.418,8.91,8.91,0,0,0-4.638-1.4,10.431,10.431,0,0,0-3.3.488,8.023,8.023,0,0,1-2.442.488,1.2,1.2,0,0,1-1.1-.61q-0.856-1.1-1.648-2.2a21.424,21.424,0,0,0-1.709-2.076,7.313,7.313,0,0,0-2.2-1.587,7.879,7.879,0,0,0-3.357-.61,27.217,27.217,0,0,0-12.452,3.174,54.387,54.387,0,0,0-11.962,8.423,99.961,99.961,0,0,0-10.987,11.9,147.93,147.93,0,0,0-16.968,27.038,101.266,101.266,0,0,0-4.882,11.719q-0.614,1.832-1.221,4.394t-1.16,5.372q-0.549,2.809-.854,5.493a41.018,41.018,0,0,0-.3,4.516,63.728,63.728,0,0,0,1.4,13.55,42.77,42.77,0,0,0,4.09,11.414,23.858,23.858,0,0,0,6.592,7.873,14.458,14.458,0,0,0,8.911,2.93,89.431,89.431,0,0,0,15.32-1.282A64.744,64.744,0,0,0,848.75,797.6a117.172,117.172,0,0,0,12.085-6.409,68.328,68.328,0,0,0,9.46-6.958,59.892,59.892,0,0,0,7.63-8.118,81.5,81.5,0,0,0,6.47-9.765,27.03,27.03,0,0,0,2.319-4.944q1.1-2.99,2.014-6.226a62.78,62.78,0,0,0,1.465-6.409,32.367,32.367,0,0,0,.549-5.371,54.311,54.311,0,0,0-.854-9.7q-0.856-4.7-1.953-9.339a13.742,13.742,0,0,0,4.089,1.77q2.99,0.916,6.409,1.709t6.591,1.282q3.174,0.489,4.639.733,4.881,0.732,9.4,1.037t8.911,0.488q4.394,0.185,8.85.367t9.338,0.549a10.246,10.246,0,0,1,2.747,1.648,2.294,2.294,0,0,1,.793,2.258q-0.123,2.81-.366,6.226t-0.488,6.958q-0.246,3.542-.55,6.958t-0.549,6.1q-0.732,7.082-1.587,14.222t-1.953,14.526q-1.1,7.387-2.5,15.32t-3.113,16.723a90.624,90.624,0,0,1-2.991,11.78,44.233,44.233,0,0,1-4.089,9.094,20.47,20.47,0,0,1-5.127,5.86,9.893,9.893,0,0,1-5.982,2.075,17.064,17.064,0,0,1-7.08-1.282,27.974,27.974,0,0,1-5.493-3.357,26.951,26.951,0,0,0-2.747-1.831,4.7,4.7,0,0,0-2.258-.732,4.045,4.045,0,0,0-2.991,1.037q-1.038,1.037-1.037,4.212a11.809,11.809,0,0,0,1.709,5.554,23.672,23.672,0,0,0,4.638,5.859,27.8,27.8,0,0,0,6.775,4.639,18.155,18.155,0,0,0,8.118,1.892,25.638,25.638,0,0,0,11.841-2.685,34.2,34.2,0,0,0,9.46-7.2A46.335,46.335,0,0,0,948.6,847.71a89.706,89.706,0,0,0,5.188-12.207,112.26,112.26,0,0,0,3.479-12.573,99.653,99.653,0,0,0,1.831-11.658q0.975-6.711,1.709-11.962t1.342-9.644q0.61-4.4,1.16-8.362t1.038-8.117q0.609-4.272,1.22-9.4t1.343-10.5q0.732-5.37,1.4-10.742t1.282-10.01q7.69,0,15.991-.427t18.559-1.038q7.68-.486,14.4-1.037T1030.63,729c3.58-.324,6.66-0.61,9.22-0.854s4.5-.367,5.8-0.367a5.524,5.524,0,0,1,3.36,1.038,3.506,3.506,0,0,1,1.4,2.991q0,1.344-2.56,12.939-1.83,8.546-3.79,16.785t-3.54,15.991q-1.59,7.754-2.56,14.709a93.7,93.7,0,0,0-.98,12.94,28.059,28.059,0,0,0,1.41,8.728,24.493,24.493,0,0,0,4.09,7.751,20.487,20.487,0,0,0,6.77,5.555,19.9,19.9,0,0,0,9.34,2.136,33.685,33.685,0,0,0,11.78-2.2,66.469,66.469,0,0,0,11.35-5.494,80.018,80.018,0,0,0,10.07-7.2,91.775,91.775,0,0,0,7.94-7.446,23.445,23.445,0,0,0,2.19-2.625c0.82-1.1,1.59-2.237,2.32-3.417a35.341,35.341,0,0,0,1.9-3.418,6.689,6.689,0,0,0,.79-2.625q0-.609-0.06-1.4a4.164,4.164,0,0,0-.43-1.526,3.278,3.278,0,0,0-1.22-1.281,4.527,4.527,0,0,0-2.44-.55,6.6,6.6,0,0,0-2.57,1.465c-1.3.977-2.88,2.218-4.76,3.723s-3.94,3.134-6.22,4.883a74.633,74.633,0,0,1-7.2,4.883,50.411,50.411,0,0,1-7.57,3.723,20.289,20.289,0,0,1-7.33,1.465q-5.25,0-8.11-3.174-2.88-3.173-2.87-10.132a49.283,49.283,0,0,1,.36-5.188c0.25-2.155.55-4.394,0.92-6.714s0.77-4.617,1.22-6.9,0.83-4.19,1.16-5.737q1.95-10.008,4.21-21.362t4.82-22.461a5.184,5.184,0,0,1,1.89-2.319,10.891,10.891,0,0,1,4.83-1.954q4.02-.732,10.56-1.77t13.97-2.258q7.455-1.218,14.83-2.5,7.395-1.283,13.13-2.5a19.46,19.46,0,0,0,5.55-2.075,24.811,24.811,0,0,0,4.64-3.3,18.133,18.133,0,0,0,3.23-3.784,6.677,6.677,0,0,0,1.23-3.418A3.9,3.9,0,0,0,1141.84,700.005Zm-267.394,35.34a90.11,90.11,0,0,1-4.09,15.564,75.134,75.134,0,0,1-6.591,13.733,49.8,49.8,0,0,1-8.973,10.925,39.765,39.765,0,0,1-11.291,7.2,34.5,34.5,0,0,1-13.55,2.625,11.284,11.284,0,0,1-5.127-1.16,13.485,13.485,0,0,1-4.028-3.052,13.27,13.27,0,0,1-2.625-4.394,14.983,14.983,0,0,1-.915-5.188,64.127,64.127,0,0,1,1.953-14.4,126.263,126.263,0,0,1,5.188-16.662,102.718,102.718,0,0,1,7.568-15.625,44.538,44.538,0,0,1,9.095-11.292q1.584-1.341,3.418-2.685a41.875,41.875,0,0,1,3.845-2.5,24.619,24.619,0,0,1,4.089-1.892,12.753,12.753,0,0,1,4.273-.732,16.221,16.221,0,0,1,5.737,1.159,29.106,29.106,0,0,1,5.8,2.991,26.983,26.983,0,0,1,4.883,4.15,12.363,12.363,0,0,1,2.869,4.761A106.812,106.812,0,0,1,874.446,735.345Zm423.4,50.9c-0.17-.08-0.61-0.244-1.35-0.488s-1.67-.569-2.8-0.977a38.667,38.667,0,0,1-5.86-2.807,92.932,92.932,0,0,1-11.05-7.447,149.285,149.285,0,0,1-11.9-10.376q-6.225-5.979-11.97-12.085t-11.23-12.451q-5.49-6.345-10.98-13t-11.11-13.611q2.805-3.173,6.9-7.2t9.46-8.911q5.49-4.881,9.03-8.179t5.37-5.005q4.4-4.272,8.97-9.46,4.59-5.187,9.22-11.536,1.59-2.2,3.85-5.371c1.5-2.115,3.05-4.13,4.63-6.043a38.78,38.78,0,0,1,4.7-4.821,6.918,6.918,0,0,1,4.28-1.954q10.485,0,10.49-7.568a20.531,20.531,0,0,0-.67-5.249,13.722,13.722,0,0,0-2.01-4.456,10.832,10.832,0,0,0-3.3-3.051,8.672,8.672,0,0,0-4.51-1.16q-9.285,0-14.41,6.47c-1.14,1.385-2.13,2.624-2.99,3.723s-1.57,2.014-2.14,2.746q-0.855.979-1.83,2.32c-0.65.9-1.42,1.913-2.32,3.052q-2.55,3.3-4.94,6.042t-4.09,4.578q-3.54,3.908-12.57,12.939l-16.48,16.48q-7.32,7.2-14.16,14.892-4.515-6.711-8.24-12.451t-6.65-10.62q-2.82-4.881-5.44-9.949t-4.94-10.559c-0.9-2.033-1.79-4.108-2.69-6.225s-1.87-4.353-2.93-6.714-1.97-4.456-2.74-6.287-1.49-3.4-2.14-4.7q-2.8-6.834-6.96-6.836-3.78,0-6.95,6.836-3.06,6.592-3.06,11.475,0,4.761,4.52,13.306,2.325,4.274,6.59,12.024t10.62,19.226q12.705,22.827,12.7,25.634,0,3.543-11.35,14.283-5.745,5.493-12.03,11.474t-13.37,12.7a235.473,235.473,0,0,0-23.31,25.146q-9.15,11.965-9.16,21A27.338,27.338,0,0,0,1124.87,807q2.445,5,5.37,5c0.49,0.162,1.12-.164,1.9-0.977a19.847,19.847,0,0,0,2.25-2.929c0.74-1.139,1.43-2.278,2.08-3.418s1.18-2.034,1.59-2.686c1.38-2.033,2.91-4.169,4.57-6.409s3.52-4.617,5.56-7.141,3.82-4.76,5.37-6.714,2.89-3.62,4.03-5q10.245-12.937,22.09-25.757a175.267,175.267,0,0,1,12.45-12.635q6.6-6.042,12.45-10.559a94.554,94.554,0,0,0,7.02,9.217q3.855,4.457,8.98,10.437,2.685,2.93,4.63,5.249c1.31,1.547,2.4,2.889,3.3,4.028q8.43,10.377,15.2,17.883a149.394,149.394,0,0,0,13.61,13.367q22.95,19.289,28.69,19.287,5.235,0,10.49-4.883,5.505-4.881,5.5-9.887c0-3.174-1.39-5.249-4.15-6.226h0Zm208.49-112.183q-6.465-13.67-13.06-18.31a103.247,103.247,0,0,0-10.01-6.958,87.321,87.321,0,0,0-28.2-10.01,188.357,188.357,0,0,0-33.32-2.808q-6.225,0-18.8.733-12.705.732-18.92,0.732a129.635,129.635,0,0,1-12.94-1.1,136.024,136.024,0,0,0-15.02-1.1q-4.635,0-8.91,5-4.14,4.884-4.15,9.766a6.033,6.033,0,0,0,1.04,3.845,21.825,21.825,0,0,0,3.6,3.235,20.986,20.986,0,0,1,4.15,3.54,6.148,6.148,0,0,1,1.47,4.15,26.6,26.6,0,0,1-.49,4.883q-0.495,2.563-1.47,6.225c-0.32,1.221-.59,2.28-0.79,3.174s-0.39,1.629-.55,2.2q-2.07,9.4-3.66,17.7t-2.81,15.747q-2.07,14.038-3.42,22.522-1.335,8.486-1.83,11.535c-0.08.653-.22,1.608-0.43,2.869s-0.46,2.911-.79,4.944-0.57,3.845-.73,5.432a39.943,39.943,0,0,0-.25,4.212,23.264,23.264,0,0,1-.85,5.737,25.033,25.033,0,0,0-.73,5,35.211,35.211,0,0,0,.55,5.249q0.54,3.418,1.77,8.545a16.871,16.871,0,0,0,5.49,9.4,14.9,14.9,0,0,0,10.01,3.54c2.12,0,6.79-.812,14.04-2.441a23.29,23.29,0,0,0,6.47-2.808q2.07-1.1,3.54-1.892c0.97-.528,1.79-0.956,2.44-1.282a185.632,185.632,0,0,1,21.97-8.789q7.44-2.2,15.93-5.432t18.13-7.507q9.645-4.272,18.86-9.461t18.13-11.169a131.834,131.834,0,0,0,29.42-26.611q11.6-14.526,11.59-30.03,0-8.543-6.47-22.217h0Zm-18.55,34.546a107.73,107.73,0,0,1-9.52,15.259q-2.82,3.786-5.13,6.47a58.009,58.009,0,0,1-4.15,4.394q-11.475,10.743-48.95,23.072-3.18.978-7.51,2.5t-10.07,3.6q-5.61,2.077-10.8,3.784t-9.95,3.052a123.524,123.524,0,0,1-18.68,4.028q-2.8-5.613-2.81-14.526c0-2.441.11-5.066,0.31-7.873s0.47-5.656.79-8.545,0.69-5.738,1.1-8.545,0.81-5.513,1.22-8.118,0.92-5.411,1.53-8.423,1.24-6.347,1.89-10.01q1.1-5.493,1.83-9.216t1.1-6.042q1.71-9.522,3.42-18.25t3.42-16.785q6.945-.243,12.94-0.854,5.97-.609,12.69-1.221,3.42-.243,6.47-0.427c2.03-.122,3.99-0.183,5.86-0.183q9.15,0,17.88.732t17.15,2.076q16.965,2.81,29.3,11.718,12.45,9.036,12.45,26,0,4.884-3.78,12.329h0Z" transform="translate(-634.281 -620.719)"/>
</svg>
