<svg xmlns="http://www.w3.org/2000/svg" width="885.72" height="206" viewBox="0 0 885.72 206">
  <defs>
    <style>
      .cls-1 {
        fill-rule: evenodd;
      }
    </style>
  </defs>
  <path id="SOFTXD" class="cls-1" d="M790.75,754.25q0-14.5-13.125-24.5T737,711.75q-18.75-5.748-29-9.625t-16.375-9.375a16.926,16.926,0,0,1-6.125-13q0-9.246,13.375-19.25A124.723,124.723,0,0,1,730.5,643.75Q748.746,637,761.75,637a25.257,25.257,0,0,1,5.75.5q2,0.5,3.5,1a29.97,29.97,0,0,1,2.875,1.375,6.187,6.187,0,0,0,2.875.875q2.748,0,2.75-3.75a49.1,49.1,0,0,0-.75-9Q778,624,768,624q-19.5,0-42.25,8.375t-38.25,21.75Q672,667.5,672,681.25a23.053,23.053,0,0,0,7.5,17.375q7.5,7.125,19.625,12T733.5,722.75q23,7,33.375,14.75T777.25,756q0,8.25-6,17t-17.125,14.5Q743,793.254,728.25,793.25A84.615,84.615,0,0,1,712.5,792a41.854,41.854,0,0,1-9.625-2.75q-3.129-1.5-3.125-2.25a3.05,3.05,0,0,1,.875-2,2.872,2.872,0,0,0,.875-1.75q0-1.248-3-1.25-2,0-5.625,5.875t-3.625,8.375q0,4.746,9.5,7.375t25.75,2.625q19.248,0,34.375-7.625t23.5-19.75q8.373-12.123,8.375-24.625h0Zm175-58.75q0-13-8.5-24.375T932.5,652.5q-5.754-2.5-18.125-4.875a110.454,110.454,0,0,0-19.625-2.375,59.121,59.121,0,0,0-8.375.375,21.388,21.388,0,0,1-3.625.375q0.246-.5,1.125-2.375a7.594,7.594,0,0,0,.875-2.875q0-1.746-2.375-3a10.381,10.381,0,0,0-4.875-1.25,16.62,16.62,0,0,0-5.25.75,13.914,13.914,0,0,0-4.75,3q-24.5,25-38.25,53.375T815.5,748.5q0,15.5,7.5,26.5a47.694,47.694,0,0,0,19.5,16.625A59.347,59.347,0,0,0,868,797.25q23.25,0,46-14.5a117.647,117.647,0,0,0,37.25-38q14.5-23.5,14.5-49.25h0ZM955,700.75q0,21-12.625,40.5a98.717,98.717,0,0,1-32.75,31.5q-20.127,12-41.125,12-18.5,0-29.125-9.625T828.747,744.25q0-22.746,11.125-46.75T871.5,652.25a12.031,12.031,0,0,1,8.5-3,8.154,8.154,0,0,0-.5,2,19.677,19.677,0,0,0-.25,3.25q0,5,12,5l9.25-.25q6-.5,9.5-0.5,11,0,18.25,3.25,13.248,6,20,15.125T955,700.75h0Zm159.743,9.5a3.4,3.4,0,0,0-.75-2.625,4.445,4.445,0,0,0-2.75-.625q-4.74,0-32.75,6-27.99,6-41.5,9.5l-1.75-54.25q10.26-2.25,33.38-5.5t30.87-3.25a16.6,16.6,0,0,1,6.5,1,6.182,6.182,0,0,1,1.5,1.375,2.79,2.79,0,0,0,2,1.125c1.84,0,3.46-1.582,4.88-4.75a20.245,20.245,0,0,0,2.12-7.75q0-3.75-9.5-3.75a228.258,228.258,0,0,0-27.75,2q-15.99,2-28.37,4.25t-15.88,3q0-10.5-4.75-10.5a3.67,3.67,0,0,0-2.25.75,10.032,10.032,0,0,0-2.25,3,11.755,11.755,0,0,0-2.25,6.125c-0.16,2.25-.25,3.543-0.25,3.875q-17.49,2.5-25.5,2.5a30.872,30.872,0,0,1-9.375-1.75,55.206,55.206,0,0,0-5.875-1.75q-3.252,0-3.25,2.25,0,4,3.5,8.75,3.75,4.752,13.5,4.75,8.754,0,27.246-3l2,55.75q-3,1-12,4.75c-0.5.168-1.33,0.461-2.5,0.875a12.419,12.419,0,0,0-3.12,1.625,3.467,3.467,0,0,0-1.38,3c0,1.168.92,2.168,2.75,3a12.7,12.7,0,0,0,5.25,1.25q2.5-.246,5.88-0.875c2.25-.414,3.87-0.707,4.87-0.875q0,17.25,1.25,48,1.005,25.248,3.5,36.5a9.243,9.243,0,0,0,2,4.25,4.306,4.306,0,0,0,3.25,1.75q1.755,0,4.38-5.375t2.62-8.125a107.7,107.7,0,0,0-1.5-10.75c-0.16-1.668-.54-4.418-1.12-8.25s-0.96-7.332-1.13-10.5q-0.495-12.246-.62-29.875T1037.74,734q12.255-3.246,38.38-8.875t33.12-6.375q5.505-.75,5.5-8.5h0Zm183.75-65q0-5.25-2.75-7.25-4.005-3-16-3-10.005,0-37,4.25a155.166,155.166,0,0,1-18,2.5,34.286,34.286,0,0,0-.5-4.125c-0.33-2.082-.75-3.375-1.25-3.875a11.718,11.718,0,0,0-8.5-3.75q-1.245,0-1.62,3.25a109.643,109.643,0,0,0-.38,11q-33.75,4.254-56,6.25-9.75.75-24,1.5a6.074,6.074,0,0,0-3.75,1.125,4.239,4.239,0,0,0-1.5,3.625q0,3.75,4.25,7a14.247,14.247,0,0,0,8.75,3.25,21.242,21.242,0,0,0,6.75-1q16.755-4.746,66.75-10.25,0.495,6.252,1,32.625t0.5,46.875q0,28.5-1.5,48l-0.25,8.75a5.314,5.314,0,0,0,1.25,3.5,3.776,3.776,0,0,0,3,1.5,11.187,11.187,0,0,0,5.88-1.75,6.614,6.614,0,0,0,3.37-4.5q0.75-3.5,1.13-18.25t0.37-26.75q0-28.5-.62-54.375t-1.38-37.875a188.634,188.634,0,0,1,25.25-3.5q15.255-1.248,27.25-1.25a27.35,27.35,0,0,1,8.13,1.375,31.168,31.168,0,0,0,5.12,1.375,5.571,5.571,0,0,0,4.5-2.125,6.544,6.544,0,0,0,1.75-4.125h0ZM1398.74,763.5q0-2.5-.63-3.125a3.4,3.4,0,0,0-2.37-.625q-1.26,0-2.13,3.125c-0.58,2.086-1.04,3.543-1.37,4.375a57.926,57.926,0,0,1-2.75,6.875,2.911,2.911,0,0,1-2.5,1.875q-3.51,0-13.38-16.75A404.889,404.889,0,0,1,1353.99,721l5.5-10q7.245-13.746,16-29.25t11.75-19.5a51.54,51.54,0,0,1,7.75-8.25q4.5-4,4.5-5.25c0-.664-0.71-1.25-2.13-1.75a15.45,15.45,0,0,0-5.12-.75q-6.51,0-9,1.75-2.505,1.752-6.25,7-3.255,4.752-29.5,54-4.26-10.5-12.5-27.625T1321.74,655a62.177,62.177,0,0,0-9.63-13.875q-5.13-5.373-7.37-5.375-2.505,0-2.5,3.5,0,1.254,2.25,5.75t5.25,10l5.5,10.75q6.495,13,25.25,55.75-10.755,22-21.25,48t-10.5,34.5a9.492,9.492,0,0,0,1.75,6,5.689,5.689,0,0,0,4.75,2.25c1,0,2.66-1.875,5-5.625s3.83-6.125,4.5-7.125a33.75,33.75,0,0,1,2.25-3.25c0.66-.832,1.25-1.582,1.75-2.25q0.495-.75,2.37-3.125c1.25-1.582,1.88-2.789,1.88-3.625a1.867,1.867,0,0,0-1.25-1.625,7.024,7.024,0,0,1-1.5-.875,4.352,4.352,0,0,1-1.75-1.75,4.269,4.269,0,0,1-.75-2q0-4,6.5-18.5t13.25-27q6.495,16.254,19.87,38.625t17.63,22.375q2.745,0,5.87-6.75a102.655,102.655,0,0,0,5.5-15.125q2.37-8.373,2.38-11.125h0Zm158.99-81.75q0-24.5-28.62-34.75t-74.13-10.25q-14.25,0-24.87,1t-25.63,3a13.994,13.994,0,0,0-5.5,1.625c-1.16.75-1.75,1.543-1.75,2.375a12.905,12.905,0,0,0,1.88,6.5q1.875,3.252,3.87,3.25a19.838,19.838,0,0,0,5.25-1.25,73.111,73.111,0,0,1,12.5-2.5q21-3,33.5-3,41.01,0,66.38,7.5T1545.98,683q0,16.752-10,32.25t-31.75,35q-10.5,9-25.87,20t-24.38,14.5q0.255-3.75.25-22.5,0-11-.5-39.5-0.75-22.248-.75-41a47.031,47.031,0,0,1,2.38-14.25c1.58-5,2.46-7.914,2.62-8.75a2.4,2.4,0,0,0-1.62-2.25,8.572,8.572,0,0,0-3.63-.75q-5.745,0-8,6-3,9.5-3,24.25,0,9.5.5,33,0.75,20.25.75,45.25a256.888,256.888,0,0,1-1.12,25.75q-1.125,11-1.13,12.5a4.041,4.041,0,0,0,1,3.125,4.9,4.9,0,0,0,3.25.875,6.475,6.475,0,0,0,4.5-1.375,8.494,8.494,0,0,0,2.25-4.125q10.755-5,26.88-17t31.37-25.5q25.26-22.248,36.5-39.75t11.25-37h0Z" transform="translate(-672 -624)"/>
</svg>
